<?xml version="1.0" encoding="UTF-8" standalone="no"?>
<svg
   xmlns:dc="http://purl.org/dc/elements/1.1/"
   xmlns:cc="http://creativecommons.org/ns#"
   xmlns:rdf="http://www.w3.org/1999/02/22-rdf-syntax-ns#"
   xmlns:svg="http://www.w3.org/2000/svg"
   xmlns="http://www.w3.org/2000/svg"
   xmlns:sodipodi="http://sodipodi.sourceforge.net/DTD/sodipodi-0.dtd"
   xmlns:inkscape="http://www.inkscape.org/namespaces/inkscape"
   id="Capa_1"
   enable-background="new 0 0 512.019 512.019"
   height="400.09415"
   viewBox="0 0 391.157 400.10899"
   width="391.14249"
   version="1.1"
   sodipodi:docname="icon.svg"
   inkscape:version="0.92.4 5da689c313, 2019-01-14">
  <metadata
     id="metadata985">
    <rdf:RDF>
      <cc:Work
         rdf:about="">
        <dc:format>image/svg+xml</dc:format>
        <dc:type
           rdf:resource="http://purl.org/dc/dcmitype/StillImage" />
        <dc:title></dc:title>
      </cc:Work>
    </rdf:RDF>
  </metadata>
  <defs
     id="defs983" />
  <sodipodi:namedview
     pagecolor="#ffffff"
     bordercolor="#666666"
     borderopacity="1"
     objecttolerance="10"
     gridtolerance="10"
     guidetolerance="10"
     inkscape:pageopacity="0"
     inkscape:pageshadow="2"
     inkscape:window-width="1920"
     inkscape:window-height="1011"
     id="namedview981"
     showgrid="false"
     inkscape:zoom="1.53125"
     inkscape:cx="195.78523"
     inkscape:cy="235.27585"
     inkscape:window-x="0"
     inkscape:window-y="36"
     inkscape:window-maximized="0"
     inkscape:current-layer="XMLID_624_" />
  <g
     id="XMLID_629_"
     transform="translate(-60.217,-0.009)">
    <circle
       id="XMLID_494_"
       cx="255.798"
       cy="204.53999"
       transform="matrix(0.707,-0.707,0.707,0.707,-69.71,240.785)"
       r="119.097"
       style="fill:#ff9171" />
    <g
       id="XMLID_2843_">
      <circle
         id="XMLID_2844_"
         cx="128.791"
         cy="331.54599"
         r="21.122999"
         style="fill:#b7eabc" />
    </g>
    <g
       id="XMLID_2841_">
      <circle
         id="XMLID_2842_"
         cx="128.791"
         cy="331.54599"
         r="21.122999"
         style="fill:#b7eabc" />
    </g>
    <g
       id="g938"
       style="fill:#b7eabc">
      <circle
         id="XMLID_2830_"
         cx="255.798"
         cy="372.013"
         r="18.105" />
      <circle
         id="XMLID_1797_"
         cx="255.798"
         cy="372.013"
         r="18.105" />
      <circle
         id="XMLID_1768_"
         cx="255.798"
         cy="32.59"
         transform="matrix(0.987,-0.16,0.16,0.987,-1.917,41.395)"
         r="22.580999" />
      <circle
         id="XMLID_1614_"
         cx="255.798"
         cy="32.59"
         transform="matrix(0.987,-0.16,0.16,0.987,-1.917,41.395)"
         r="22.580999" />
      <circle
         id="XMLID_1822_"
         cx="88.323997"
         cy="204.53999"
         transform="matrix(0.23,-0.973,0.973,0.23,-131.037,243.507)"
         r="18.105" />
      <circle
         id="XMLID_1821_"
         cx="88.323997"
         cy="204.53999"
         transform="matrix(0.23,-0.973,0.973,0.23,-131.037,243.507)"
         r="18.105" />
      <circle
         id="XMLID_1798_"
         cx="423.271"
         cy="204.53999"
         transform="matrix(0.707,-0.707,0.707,0.707,-20.658,359.206)"
         r="18.105" />
      <circle
         id="XMLID_1796_"
         cx="423.271"
         cy="204.53999"
         transform="matrix(0.707,-0.707,0.707,0.707,-20.658,359.206)"
         r="18.105" />
    </g>
    <g
       id="XMLID_1788_">
      <circle
         id="XMLID_1791_"
         cx="374.89499"
         cy="323.63699"
         transform="matrix(0.987,-0.16,0.16,0.987,-47,64.23)"
         r="21.122999"
         style="fill:#b7eabc" />
    </g>
    <g
       id="XMLID_1786_">
      <circle
         id="XMLID_1787_"
         cx="374.89499"
         cy="323.63699"
         transform="matrix(0.987,-0.16,0.16,0.987,-47,64.23)"
         r="21.122999"
         style="fill:#b7eabc" />
    </g>
    <g
       id="XMLID_179_">
      <circle
         id="XMLID_181_"
         cx="201.117"
         cy="204.53999"
         r="21.122999"
         style="fill:#b7eabc" />
    </g>
    <g
       id="XMLID_177_">
      <circle
         id="XMLID_178_"
         cx="201.117"
         cy="204.53999"
         r="21.122999"
         style="fill:#b7eabc" />
    </g>
    <g
       id="XMLID_204_">
      <circle
         id="XMLID_207_"
         cx="277.047"
         cy="162.29401"
         transform="matrix(0.987,-0.16,0.16,0.987,-22.419,46.474)"
         r="21.122999"
         style="fill:#b7eabc" />
    </g>
    <g
       id="XMLID_185_">
      <circle
         id="XMLID_186_"
         cx="277.047"
         cy="162.29401"
         transform="matrix(0.987,-0.16,0.16,0.987,-22.419,46.474)"
         r="21.122999"
         style="fill:#b7eabc" />
    </g>
    <g
       id="XMLID_212_">
      <circle
         id="XMLID_213_"
         cx="268.40601"
         cy="259.22101"
         r="21.122999"
         style="fill:#b7eabc" />
    </g>
    <g
       id="XMLID_210_">
      <circle
         id="XMLID_211_"
         cx="268.40601"
         cy="259.22101"
         r="21.122999"
         style="fill:#b7eabc" />
    </g>
    <g
       id="XMLID_1843_">
      <circle
         id="XMLID_1844_"
         cx="136.039"
         cy="84.780998"
         r="21.122999"
         style="fill:#b7eabc" />
    </g>
    <g
       id="XMLID_1833_">
      <circle
         id="XMLID_1842_"
         cx="136.039"
         cy="84.780998"
         r="21.122999"
         style="fill:#b7eabc" />
    </g>
    <g
       id="XMLID_1545_">
      <g
         id="XMLID_1828_">
        <circle
           id="XMLID_1829_"
           cx="386.75699"
           cy="73.580002"
           transform="matrix(0.924,-0.383,0.383,0.924,1.282,153.607)"
           r="21.122999"
           style="fill:#b7eabc" />
      </g>
      <g
         id="XMLID_1826_">
        <circle
           id="XMLID_1827_"
           cx="386.75699"
           cy="73.580002"
           transform="matrix(0.924,-0.383,0.383,0.924,1.282,153.607)"
           r="21.122999"
           style="fill:#b7eabc" />
      </g>
    </g>
    <g
       id="XMLID_624_">
      <path
         id="XMLID_1043_"
         d="m 423.272,176.435 c -11.976,0 -22.22,7.532 -26.26,18.105 h -12.496 c -1.083,-14.226 -4.485,-28.03 -10.155,-41.155 -2.191,-5.07 -8.077,-7.405 -13.146,-5.214 -5.07,2.19 -7.404,8.076 -5.214,13.146 5.902,13.663 8.895,28.205 8.895,43.224 0,26.485 -9.49,50.793 -25.244,69.711 l -6.297,-6.297 c -3.905,-3.903 -10.237,-3.904 -14.142,0 -3.905,3.905 -3.906,10.237 -0.001,14.142 l 6.297,6.297 c -18.918,15.754 -43.226,25.244 -69.711,25.244 -26.485,0 -50.794,-9.49 -69.711,-25.244 l 0.978,-0.978 c 3.905,-3.905 3.905,-10.237 0,-14.143 -3.905,-3.904 -10.237,-3.904 -14.143,0 l -0.978,0.978 C 156.19,255.333 146.7,231.025 146.7,204.54 c 0,-26.485 9.49,-50.793 25.244,-69.711 l 8.226,8.226 c 1.953,1.953 4.512,2.929 7.071,2.929 2.559,0 5.119,-0.976 7.071,-2.929 3.905,-3.905 3.905,-10.237 0,-14.143 l -8.226,-8.226 c 18.918,-15.754 43.226,-25.244 69.711,-25.244 14.865,0 29.27,2.934 42.814,8.719 5.081,2.17 10.955,-0.19 13.124,-5.268 2.17,-5.079 -0.189,-10.955 -5.268,-13.124 -12.982,-5.545 -26.623,-8.876 -40.671,-9.946 V 63.595 c 13.087,-4.231 22.58,-16.527 22.58,-31.005 0,-17.965 -14.616,-32.581 -32.58,-32.581 -17.965,0 -32.581,14.616 -32.581,32.581 0,14.477 9.494,26.773 22.581,31.005 v 12.232 c -28.091,2.162 -53.689,13.358 -73.895,30.675 l -7.959,-7.959 c 2.056,-4.152 3.218,-8.823 3.218,-13.762 0,-17.161 -13.961,-31.123 -31.123,-31.123 -17.161,0 -31.123,13.962 -31.123,31.123 0,17.161 13.962,31.123 31.123,31.123 4.939,0 9.61,-1.162 13.762,-3.218 l 7.959,7.959 c -17.317,20.206 -28.513,45.804 -30.675,73.895 h -12.501 c -4.04,-10.573 -14.284,-18.105 -26.26,-18.105 -15.498,0 -28.105,12.608 -28.105,28.105 0,15.497 12.608,28.105 28.105,28.105 11.976,0 22.22,-7.532 26.26,-18.105 h 12.5 c 2.162,28.091 13.359,53.689 30.676,73.895 l -15.207,15.207 c -4.152,-2.056 -8.823,-3.218 -13.762,-3.218 -17.161,0 -31.123,13.961 -31.123,31.122 0,17.161 13.962,31.123 31.123,31.123 17.161,0 31.123,-13.962 31.123,-31.123 0,-4.939 -1.162,-9.61 -3.218,-13.762 l 15.207,-15.207 c 20.207,17.317 45.804,28.513 73.895,30.675 v 12.501 c -10.574,4.04 -18.105,14.285 -18.105,26.26 0,15.497 12.608,28.105 28.105,28.105 15.497,0 28.105,-12.608 28.105,-28.105 0,-11.976 -7.532,-22.22 -18.105,-26.26 v -12.501 c 28.091,-2.162 53.688,-13.359 73.895,-30.675 l 7.297,7.298 c -2.056,4.152 -3.218,8.823 -3.218,13.762 0,17.161 13.962,31.123 31.123,31.123 17.161,0 31.123,-13.962 31.123,-31.123 0,-17.161 -13.961,-31.122 -31.123,-31.122 -4.939,0 -9.61,1.162 -13.762,3.218 l -7.298,-7.298 c 17.317,-20.206 28.513,-45.804 30.675,-73.895 h 12.5 c 4.04,10.574 14.284,18.105 26.261,18.105 15.497,0 28.105,-12.608 28.105,-28.105 0.002,-15.498 -12.605,-28.105 -28.102,-28.105 z M 255.798,20.01 c 6.937,0 12.58,5.644 12.58,12.581 0,6.937 -5.643,12.581 -12.58,12.581 -6.937,0 -12.581,-5.644 -12.581,-12.581 0,-6.937 5.644,-12.581 12.581,-12.581 z M 136.039,95.904 c -6.133,0 -11.123,-4.99 -11.123,-11.123 0,-6.133 4.99,-11.123 11.123,-11.123 6.133,0 11.123,4.99 11.123,11.123 0,6.133 -4.99,11.123 -11.123,11.123 z M 88.324,212.645 c -4.469,0 -8.105,-3.636 -8.105,-8.105 0,-4.469 3.636,-8.105 8.105,-8.105 4.469,0 8.105,3.636 8.105,8.105 0,4.469 -3.635,8.105 -8.105,8.105 z m 40.468,130.024 c -6.133,0 -11.123,-4.99 -11.123,-11.123 0,-6.133 4.99,-11.122 11.123,-11.122 6.133,0 11.123,4.989 11.123,11.122 -0.001,6.133 -4.991,11.123 -11.123,11.123 z m 127.006,37.45 c -4.469,0 -8.105,-3.636 -8.105,-8.105 0,-4.469 3.636,-8.105 8.105,-8.105 4.469,0 8.105,3.636 8.105,8.105 0,4.469 -3.636,8.105 -8.105,8.105 z m 119.097,-67.604 c 6.133,0 11.123,4.989 11.123,11.122 0,6.133 -4.99,11.123 -11.123,11.123 -6.133,0 -11.123,-4.99 -11.123,-11.123 0,-6.133 4.99,-11.122 11.123,-11.122 z m 48.377,-99.87 c -4.469,0 -8.106,-3.636 -8.106,-8.105 0,-4.469 3.636,-8.105 8.106,-8.105 4.469,0 8.105,3.636 8.105,8.105 -0.001,4.469 -3.636,8.105 -8.105,8.105 z"
         inkscape:connector-curvature="0" />
      <path
         id="XMLID_1052_"
         d="m 169.994,204.54 c 0,17.161 13.962,31.123 31.123,31.123 17.161,0 31.123,-13.962 31.123,-31.123 0,-17.161 -13.962,-31.123 -31.123,-31.123 -17.161,0 -31.123,13.961 -31.123,31.123 z m 42.245,0 c 0,6.133 -4.99,11.123 -11.123,11.123 -6.133,0 -11.123,-4.99 -11.123,-11.123 0,-6.133 4.99,-11.123 11.123,-11.123 6.133,0 11.123,4.99 11.123,11.123 z"
         inkscape:connector-curvature="0" />
      <path
         id="XMLID_1055_"
         d="m 277.047,131.171 c -17.161,0 -31.123,13.961 -31.123,31.123 0,17.161 13.961,31.123 31.123,31.123 17.161,0 31.123,-13.962 31.123,-31.123 0,-17.161 -13.962,-31.123 -31.123,-31.123 z m 0,42.246 c -6.133,0 -11.123,-4.99 -11.123,-11.123 0,-6.133 4.99,-11.123 11.123,-11.123 6.133,0 11.123,4.99 11.123,11.123 0,6.133 -4.989,11.123 -11.123,11.123 z"
         inkscape:connector-curvature="0" />
      <path
         id="XMLID_1058_"
         d="m 268.406,228.098 c -17.161,0 -31.123,13.961 -31.123,31.122 0,17.161 13.962,31.123 31.123,31.123 17.161,0 31.122,-13.962 31.122,-31.123 0,-17.16 -13.961,-31.122 -31.122,-31.122 z m 0,42.246 c -6.133,0 -11.123,-4.99 -11.123,-11.123 0,-6.133 4.99,-11.122 11.123,-11.122 6.133,0 11.122,4.99 11.122,11.122 0,6.133 -4.989,11.123 -11.122,11.123 z"
         inkscape:connector-curvature="0" />
      <path
         id="XMLID_1061_"
         d="m 386.757,104.703 c 17.161,0 31.123,-13.961 31.123,-31.123 0,-17.162 -13.962,-31.123 -31.123,-31.123 -17.161,0 -31.122,13.962 -31.122,31.123 0,17.161 13.961,31.123 31.122,31.123 z m 0,-42.245 c 6.133,0 11.123,4.99 11.123,11.123 0,6.133 -4.99,11.123 -11.123,11.123 -6.133,0 -11.122,-4.99 -11.122,-11.123 -10e-4,-6.134 4.989,-11.123 11.122,-11.123 z"
         inkscape:connector-curvature="0" />
      <path
         id="XMLID_1062_"
         d="m 339.84,130.16 c 2.63,0 5.21,-1.07 7.07,-2.93 1.86,-1.86 2.93,-4.44 2.93,-7.08 0,-2.63 -1.07,-5.21 -2.93,-7.07 -1.86,-1.86 -4.44,-2.93 -7.07,-2.93 -2.63,0 -5.21,1.07 -7.07,2.93 -1.86,1.86 -2.93,4.44 -2.93,7.07 0,2.64 1.07,5.22 2.93,7.08 1.86,1.859 4.44,2.93 7.07,2.93 z"
         inkscape:connector-curvature="0" />
    </g>
  </g>
</svg>
